<svg xmlns="http://www.w3.org/2000/svg" xmlns:bx="https://boxy-svg.com" viewBox="67.6 136.62 354.04 354">  <path style="stroke: rgb(0, 0, 0); fill-rule: nonzero; fill: rgb(254, 240, 219); stroke-width: 0px;" d="M 97.596 136.619 H 391.636 A 30 30 0 0 1 421.636 166.619 V 460.619 A 30 30 0 0 1 391.636 490.619 H 92.596 A 25 25 0 0 1 67.596 465.619 V 166.619 A 30 30 0 0 1 97.596 136.619 Z" bx:shape="rect 67.596 136.619 354.04 354 30 30 30 25 1@52e759b5"></path>  <g transform="matrix(2.0128159523010254, 0, 0, 2.0128159523010254, 77.2960433959961, 219.99859619140625)" class="icon-text-wrapper icon-svg-group iconsvg" fill="#f4400d" data-v-0dd9719b="" style="">    <g opacity="1" transform="matrix(1.995739, 0, 0, 1.995739, 23.631712, 6.289638)" class="iconsvg-imagesvg" style="">      <g>        <rect class="image-rect" height="38.084115115585284" width="60" y="0" x="0" stroke-width="2" fill-opacity="0" fill="#f4400d"></rect>        <svg style="overflow: visible;" class="image-svg-svg primary" height="38.084115115585284" width="60" y="0" x="0" filter="url(#colors7984638783)">          <svg xmlns="http://www.w3.org/2000/svg" viewBox="4.5229997634887695 19.570999145507812 90.47699737548828 57.42900085449219" y="0px" x="0px" version="1.1">            <g>              <path d="M4.523,38.516L25.1,54.501L25.056,77l16.407-10.872l-5.798-5.514L58.439,77L95,19.571L4.523,38.516z    M86.883,24.992L36.895,56.918L28.743,70.77l0.127-17.597L86.883,24.992z"></path>            </g>          </svg>        </svg>        <defs>          <filter id="colors7984638783">            <feColorMatrix class="icon-fecolormatrix" values="0 0 0 0 0.953125  0 0 0 0 0.25  0 0 0 0 0.05078125  0 0 0 1 0" type="matrix"></feColorMatrix>          </filter>        </defs>      </g>    </g>    <g transform="translate(0,45.08411407470703)"></g>  </g></svg>