<svg data-v-0dd9719b="" version="1.0" xmlns="http://www.w3.org/2000/svg" xmlns:xlink="http://www.w3.org/1999/xlink" width="100%" height="100%" viewBox="0 0 340.000000 250.000000" preserveAspectRatio="xMidYMid meet" color-interpolation-filters="sRGB" style="margin: auto;"> <rect data-v-0dd9719b="" x="0" y="0" width="100%" height="100%" fill="#fef0da" fill-opacity="0" class="background"></rect> <rect data-v-0dd9719b="" x="0" y="0" width="100%" height="100%" fill="url(#watermark)" fill-opacity="1" class="watermarklayer"></rect> <g data-v-0dd9719b="" fill="#f4400d" class="icon-text-wrapper icon-svg-group iconsvg" transform="translate(81.64500427246094,79.98694610595703)"><g class="iconsvg-imagesvg" transform="matrix(1,0,0,1,58.35499572753906,0)" opacity="1"><g><rect fill="#f4400d" fill-opacity="0" stroke-width="2" x="0" y="0" width="60" height="38.084115115585284" class="image-rect"></rect> <svg filter="url(#colors7984638783)" x="0" y="0" width="60" height="38.084115115585284" filtersec="colorsf2686776450" class="image-svg-svg primary" style="overflow: visible;"><svg xmlns="http://www.w3.org/2000/svg" xmlns:xlink="http://www.w3.org/1999/xlink" version="1.1" x="0px" y="0px" viewBox="4.5229997634887695 19.570999145507812 90.47699737548828 57.42900085449219" enable-background="new 0 0 100 100" xml:space="preserve"><g><path d="M4.523,38.516L25.1,54.501L25.056,77l16.407-10.872l-5.798-5.514L58.439,77L95,19.571L4.523,38.516z    M86.883,24.992L36.895,56.918L28.743,70.77l0.127-17.597L86.883,24.992z"></path></g></svg></svg> <defs><filter id="colors7984638783"><feColorMatrix type="matrix" values="0 0 0 0 0.953125  0 0 0 0 0.25  0 0 0 0 0.05078125  0 0 0 1 0" class="icon-fecolormatrix"></feColorMatrix></filter> <filter id="colorsf2686776450"><feColorMatrix type="matrix" values="0 0 0 0 0.99609375  0 0 0 0 0.99609375  0 0 0 0 0.99609375  0 0 0 1 0" class="icon-fecolormatrix"></feColorMatrix></filter> <filter id="colorsb6610688127"><feColorMatrix type="matrix" values="0 0 0 0 0  0 0 0 0 0  0 0 0 0 0  0 0 0 1 0" class="icon-fecolormatrix"></feColorMatrix></filter></defs></g></g> <g transform="translate(0,45.08411407470703)"><g data-gra="path-name" fill-rule="" class="tp-name iconsvg-namesvg" transform="matrix(1,0,0,1,0,0)" opacity="1"><g transform="scale(1)"><g><path d="M21.87-25.78L21.87-25.78Q22.87-25.27 23.05-24.19 23.22-23.1 22.49-22.21L22.49-22.21Q21.98-21.52 21.19-21.44 20.4-21.36 19.58-21.75L19.58-21.75Q18.65-22.18 17.63-22.41 16.6-22.64 15.48-22.64L15.48-22.64Q13.39-22.64 11.75-21.98 10.1-21.32 8.94-20.11 7.78-18.89 7.18-17.22 6.58-15.56 6.58-13.55L6.58-13.55Q6.58-11.18 7.26-9.44 7.93-7.7 9.13-6.54 10.33-5.38 11.96-4.82 13.58-4.26 15.48-4.26L15.48-4.26Q16.53-4.26 17.57-4.45 18.62-4.64 19.58-5.15L19.58-5.15Q20.4-5.53 21.19-5.42 21.98-5.3 22.52-4.61L22.52-4.61Q23.3-3.64 23.09-2.61 22.87-1.59 21.9-1.12L21.9-1.12Q20.9-0.62 19.83-0.29 18.77 0.04 17.69 0.21 16.6 0.39 15.48 0.39L15.48 0.39Q12.69 0.39 10.2-0.5 7.7-1.39 5.75-3.13 3.79-4.88 2.67-7.49 1.55-10.1 1.55-13.55L1.55-13.55Q1.55-16.53 2.57-19.04 3.6-21.56 5.48-23.39 7.35-25.23 9.91-26.26 12.46-27.28 15.48-27.28L15.48-27.28Q17.18-27.28 18.81-26.9 20.43-26.51 21.87-25.78ZM29.1 0L29.1 0Q28.1 0 27.44-0.68 26.78-1.35 26.78-2.36L26.78-2.36 26.78-18.34Q26.78-19.35 27.44-20.03 28.1-20.71 29.1-20.71L29.1-20.71Q30.11-20.71 30.77-20.03 31.43-19.35 31.43-18.34L31.43-18.34 31.43-14.71 31.15-17.3Q31.58-18.23 32.26-18.94 32.93-19.66 33.79-20.14 34.64-20.63 35.61-20.86 36.57-21.09 37.54-21.09L37.54-21.09Q38.7-21.09 39.49-20.43 40.29-19.78 40.29-18.89L40.29-18.89Q40.29-17.61 39.63-17.05 38.97-16.49 38.2-16.49L38.2-16.49Q37.46-16.49 36.86-16.76 36.26-17.03 35.49-17.03L35.49-17.03Q34.79-17.03 34.08-16.7 33.36-16.37 32.76-15.67 32.16-14.98 31.79-13.95 31.43-12.93 31.43-11.53L31.43-11.53 31.43-2.36Q31.43-1.35 30.77-0.68 30.11 0 29.1 0ZM62.62-10.33L62.62-10.33Q62.62-7.16 61.21-4.74 59.79-2.32 57.41-0.97 55.03 0.39 52.09 0.39L52.09 0.39Q49.15 0.39 46.77-0.97 44.39-2.32 42.98-4.74 41.57-7.16 41.57-10.33L41.57-10.33Q41.57-13.51 42.98-15.93 44.39-18.34 46.77-19.72 49.15-21.09 52.09-21.09L52.09-21.09Q55.03-21.09 57.41-19.72 59.79-18.34 61.21-15.93 62.62-13.51 62.62-10.33ZM57.97-10.33L57.97-10.33Q57.97-12.31 57.18-13.76 56.39-15.21 55.05-16.02 53.72-16.84 52.09-16.84L52.09-16.84Q50.47-16.84 49.13-16.02 47.8-15.21 47-13.76 46.21-12.31 46.21-10.33L46.21-10.33Q46.21-8.4 47-6.95 47.8-5.5 49.13-4.68 50.47-3.87 52.09-3.87L52.09-3.87Q53.72-3.87 55.05-4.68 56.39-5.5 57.18-6.95 57.97-8.4 57.97-10.33ZM77.56-21.09L77.56-21.09Q80.42-21.09 81.91-19.89 83.4-18.69 83.96-16.7 84.52-14.71 84.52-12.27L84.52-12.27 84.52-2.36Q84.52-1.35 83.87-0.68 83.21 0 82.2 0L82.2 0Q81.2 0 80.54-0.68 79.88-1.35 79.88-2.36L79.88-2.36 79.88-12.27Q79.88-13.55 79.55-14.57 79.22-15.6 78.37-16.22 77.52-16.84 75.93-16.84L75.93-16.84Q74.38-16.84 73.32-16.22 72.26-15.6 71.69-14.57 71.13-13.55 71.13-12.27L71.13-12.27 71.13-2.36Q71.13-1.35 70.48-0.68 69.82 0 68.81 0L68.81 0Q67.8 0 67.15-0.68 66.49-1.35 66.49-2.36L66.49-2.36 66.49-18.34Q66.49-19.35 67.15-20.03 67.8-20.71 68.81-20.71L68.81-20.71Q69.82-20.71 70.48-20.03 71.13-19.35 71.13-18.34L71.13-18.34 71.13-16.68 70.55-16.8Q70.9-17.45 71.56-18.21 72.22-18.96 73.11-19.62 74-20.28 75.12-20.69 76.24-21.09 77.56-21.09ZM103.14-27.09L111.96-27.09Q113.98-27.09 115.74-25.93 117.5-24.77 118.58-22.8 119.66-20.82 119.66-18.38L119.66-18.38Q119.66-15.98 118.58-14.01 117.5-12.04 115.74-10.86 113.98-9.68 111.96-9.68L111.96-9.68 104.84-9.68 105.23-10.37 105.23-2.36Q105.23-1.35 104.61-0.68 103.99 0 102.98 0L102.98 0Q102.02 0 101.4-0.68 100.78-1.35 100.78-2.36L100.78-2.36 100.78-24.73Q100.78-25.74 101.46-26.41 102.13-27.09 103.14-27.09L103.14-27.09ZM104.8-14.09L111.96-14.09Q112.7-14.09 113.39-14.71 114.09-15.33 114.56-16.31 115.02-17.3 115.02-18.38L115.02-18.38Q115.02-19.51 114.56-20.47 114.09-21.44 113.39-22.04 112.7-22.64 111.96-22.64L111.96-22.64 104.76-22.64 105.23-23.34 105.23-13.47 104.8-14.09ZM128.1-18.34L128.1-2.36Q128.1-1.35 127.44-0.68 126.79 0 125.78 0L125.78 0Q124.77 0 124.12-0.68 123.46-1.35 123.46-2.36L123.46-2.36 123.46-18.34Q123.46-19.35 124.12-20.03 124.77-20.71 125.78-20.71L125.78-20.71Q126.79-20.71 127.44-20.03 128.1-19.35 128.1-18.34L128.1-18.34ZM125.74-23.22L125.74-23.22Q124.42-23.22 123.88-23.65 123.34-24.07 123.34-25.16L123.34-25.16 123.34-25.89Q123.34-27.01 123.94-27.42 124.54-27.83 125.78-27.83L125.78-27.83Q127.13-27.83 127.68-27.4 128.22-26.97 128.22-25.89L128.22-25.89 128.22-25.16Q128.22-24.03 127.64-23.63 127.06-23.22 125.74-23.22ZM137.89-26.28L137.89-2.36Q137.89-1.35 137.22-0.68 136.54 0 135.53 0L135.53 0Q134.56 0 133.91-0.68 133.25-1.35 133.25-2.36L133.25-2.36 133.25-26.28Q133.25-27.28 133.93-27.96 134.6-28.64 135.61-28.64L135.61-28.64Q136.62-28.64 137.25-27.96 137.89-27.28 137.89-26.28L137.89-26.28ZM162.82-10.33L162.82-10.33Q162.82-7.16 161.4-4.74 159.99-2.32 157.61-0.97 155.23 0.39 152.29 0.39L152.29 0.39Q149.35 0.39 146.97-0.97 144.59-2.32 143.18-4.74 141.76-7.16 141.76-10.33L141.76-10.33Q141.76-13.51 143.18-15.93 144.59-18.34 146.97-19.72 149.35-21.09 152.29-21.09L152.29-21.09Q155.23-21.09 157.61-19.72 159.99-18.34 161.4-15.93 162.82-13.51 162.82-10.33ZM158.17-10.33L158.17-10.33Q158.17-12.31 157.38-13.76 156.59-15.21 155.25-16.02 153.92-16.84 152.29-16.84L152.29-16.84Q150.66-16.84 149.33-16.02 147.99-15.21 147.2-13.76 146.41-12.31 146.41-10.33L146.41-10.33Q146.41-8.4 147.2-6.95 147.99-5.5 149.33-4.68 150.66-3.87 152.29-3.87L152.29-3.87Q153.92-3.87 155.25-4.68 156.59-5.5 157.38-6.95 158.17-8.4 158.17-10.33ZM166.92-20.32L166.92-20.32 176.09-20.32Q177.02-20.32 177.64-19.7 178.26-19.08 178.26-18.15L178.26-18.15Q178.26-17.26 177.64-16.66 177.02-16.06 176.09-16.06L176.09-16.06 166.92-16.06Q165.99-16.06 165.37-16.68 164.75-17.3 164.75-18.23L164.75-18.23Q164.75-19.12 165.37-19.72 165.99-20.32 166.92-20.32ZM171.06-25.16L171.06-25.16Q172.07-25.16 172.7-24.48 173.34-23.8 173.34-22.8L173.34-22.8 173.34-5.57Q173.34-5.03 173.56-4.68 173.77-4.33 174.14-4.18 174.5-4.02 174.93-4.02L174.93-4.02Q175.39-4.02 175.78-4.2 176.17-4.37 176.67-4.37L176.67-4.37Q177.21-4.37 177.66-3.87 178.1-3.37 178.1-2.48L178.1-2.48Q178.1-1.39 176.92-0.7 175.74 0 174.39 0L174.39 0Q173.58 0 172.59-0.14 171.6-0.27 170.73-0.79 169.86-1.32 169.28-2.4 168.7-3.48 168.7-5.38L168.7-5.38 168.7-22.8Q168.7-23.8 169.38-24.48 170.05-25.16 171.06-25.16Z" transform="translate(-1.5499999523162842, 28.639999389648438)"></path></g> <!----> <!----> <!----> <!----> <!----> <!----> <!----></g></g> <g data-gra="path-slogan" fill-rule="" class="tp-slogan iconsvg-slogansvg" fill="#2f2a76" transform="matrix(1,0,0,1,37.51499557495117,35.029998779296875)" opacity="1"><!----> <!----> <g transform="scale(1, 1)"><g transform="scale(1)"><path d="M2.08-4.14L2.08-7.07L3.40-7.07C4.01-7.07 4.48-6.96 4.81-6.76C5.14-6.55 5.30-6.18 5.30-5.66C5.30-5.15 5.14-4.77 4.81-4.52C4.48-4.27 4.01-4.14 3.40-4.14ZM5.40 0L6.53 0L4.54-3.43C5.07-3.57 5.50-3.82 5.82-4.19C6.14-4.56 6.30-5.05 6.30-5.66C6.30-6.07 6.23-6.42 6.10-6.70C5.96-6.98 5.77-7.20 5.53-7.38C5.28-7.56 4.99-7.68 4.65-7.76C4.31-7.83 3.94-7.87 3.54-7.87L1.08-7.87L1.08 0L2.08 0L2.08-3.32L3.50-3.32ZM8.02-7.87L8.02-3.25C8.02-2.62 8.09-2.09 8.23-1.66C8.38-1.22 8.57-0.87 8.83-0.61C9.08-0.34 9.38-0.15 9.73-0.03C10.07 0.09 10.45 0.14 10.85 0.14C11.25 0.14 11.62 0.09 11.96-0.03C12.31-0.15 12.61-0.34 12.86-0.61C13.11-0.87 13.31-1.22 13.45-1.66C13.60-2.09 13.67-2.62 13.67-3.25L13.67-7.87L12.71-7.87L12.71-3.23C12.71-2.76 12.66-2.36 12.56-2.04C12.47-1.72 12.34-1.46 12.17-1.27C12-1.08 11.80-0.94 11.58-0.86C11.36-0.77 11.11-0.73 10.85-0.73C10.59-0.73 10.35-0.77 10.13-0.86C9.90-0.94 9.71-1.08 9.55-1.27C9.38-1.46 9.25-1.72 9.16-2.04C9.06-2.36 9.01-2.76 9.01-3.23L9.01-7.87ZM15.79-7.87L15.79 0L16.74 0L16.74-4.12C16.74-4.53 16.73-4.95 16.70-5.36C16.67-5.77 16.64-6.18 16.61-6.58L16.66-6.58L17.51-4.96L20.36 0L21.40 0L21.40-7.87L20.45-7.87L20.45-3.80C20.45-3.39 20.46-2.97 20.49-2.54C20.52-2.11 20.54-1.70 20.57-1.30L20.52-1.30L19.67-2.93L16.82-7.87ZM23.04 1.46L23.28 2.04C23.77 1.83 24.15 1.54 24.43 1.15C24.71 0.77 24.85 0.32 24.85-0.20C24.85-0.56 24.78-0.85 24.63-1.06C24.48-1.26 24.28-1.37 24.02-1.37C23.82-1.37 23.65-1.31 23.51-1.18C23.36-1.06 23.29-0.89 23.29-0.67C23.29-0.45 23.36-0.28 23.50-0.16C23.64-0.05 23.81 0.01 24 0.01C24.06 0.01 24.10 0.01 24.12 0C24.12 0.33 24.02 0.62 23.83 0.86C23.64 1.11 23.38 1.31 23.04 1.46ZM29.96-4.14L29.96-7.07L31.28-7.07C31.90-7.07 32.37-6.96 32.70-6.76C33.03-6.55 33.19-6.18 33.19-5.66C33.19-5.15 33.03-4.77 32.70-4.52C32.37-4.27 31.90-4.14 31.28-4.14ZM33.29 0L34.42 0L32.42-3.43C32.96-3.57 33.39-3.82 33.71-4.19C34.03-4.56 34.19-5.05 34.19-5.66C34.19-6.07 34.12-6.42 33.98-6.70C33.85-6.98 33.66-7.20 33.41-7.38C33.17-7.56 32.88-7.68 32.54-7.76C32.20-7.83 31.83-7.87 31.43-7.87L28.97-7.87L28.97 0L29.96 0L29.96-3.32L31.39-3.32ZM35.94-7.87L35.94 0L40.60 0L40.60-0.85L36.94-0.85L36.94-3.71L39.92-3.71L39.92-4.56L36.94-4.56L36.94-7.03L40.48-7.03L40.48-7.87ZM42.26-7.87L42.26 0L43.26 0L43.26-3.12L44.68-3.12C45.11-3.12 45.50-3.17 45.86-3.27C46.21-3.37 46.52-3.52 46.78-3.72C47.03-3.92 47.23-4.17 47.37-4.48C47.51-4.78 47.58-5.14 47.58-5.56C47.58-5.99 47.51-6.35 47.37-6.65C47.23-6.94 47.03-7.18 46.78-7.36C46.53-7.54 46.22-7.67 45.86-7.75C45.50-7.83 45.11-7.87 44.68-7.87ZM44.56-3.94L43.26-3.94L43.26-7.07L44.56-7.07C45.24-7.07 45.74-6.96 46.08-6.74C46.42-6.52 46.58-6.12 46.58-5.56C46.58-5.00 46.42-4.59 46.09-4.33C45.75-4.07 45.24-3.94 44.56-3.94ZM49.18-7.87L49.18 0L53.83 0L53.83-0.85L50.17-0.85L50.17-3.71L53.16-3.71L53.16-4.56L50.17-4.56L50.17-7.03L53.71-7.03L53.71-7.87ZM58.85-3.20L56.48-3.20L56.86-4.40C57.00-4.84 57.14-5.28 57.26-5.72C57.39-6.15 57.52-6.60 57.64-7.06L57.68-7.06C57.81-6.60 57.94-6.15 58.07-5.72C58.20-5.28 58.33-4.84 58.48-4.40ZM59.10-2.40L59.84 0L60.91 0L58.25-7.87L57.12-7.87L54.46 0L55.48 0L56.23-2.40ZM63.18-7.03L63.18 0L64.19 0L64.19-7.03L66.56-7.03L66.56-7.87L60.80-7.87L60.80-7.03ZM66.19 1.46L66.43 2.04C66.92 1.83 67.30 1.54 67.58 1.15C67.86 0.77 68.00 0.32 68.00-0.20C68.00-0.56 67.93-0.85 67.78-1.06C67.63-1.26 67.43-1.37 67.18-1.37C66.98-1.37 66.80-1.31 66.66-1.18C66.52-1.06 66.44-0.89 66.44-0.67C66.44-0.45 66.51-0.28 66.65-0.16C66.79-0.05 66.96 0.01 67.15 0.01C67.21 0.01 67.25 0.01 67.27 0C67.27 0.33 67.18 0.62 66.98 0.86C66.79 1.11 66.53 1.31 66.19 1.46ZM73.12-4.14L73.12-7.07L74.44-7.07C75.05-7.07 75.52-6.96 75.85-6.76C76.18-6.55 76.34-6.18 76.34-5.66C76.34-5.15 76.18-4.77 75.85-4.52C75.52-4.27 75.05-4.14 74.44-4.14ZM76.44 0L77.57 0L75.58-3.43C76.11-3.57 76.54-3.82 76.86-4.19C77.18-4.56 77.34-5.05 77.34-5.66C77.34-6.07 77.27-6.42 77.14-6.70C77.00-6.98 76.81-7.20 76.57-7.38C76.32-7.56 76.03-7.68 75.69-7.76C75.35-7.83 74.98-7.87 74.58-7.87L72.12-7.87L72.12 0L73.12 0L73.12-3.32L74.54-3.32ZM79.09-7.87L79.09 0L83.75 0L83.75-0.85L80.09-0.85L80.09-3.71L83.08-3.71L83.08-4.56L80.09-4.56L80.09-7.03L83.63-7.03L83.63-7.87ZM85.42-7.87L85.42 0L89.86 0L89.86-0.85L86.41-0.85L86.41-7.87ZM94.63-3.20L92.27-3.20L92.64-4.40C92.78-4.84 92.92-5.28 93.05-5.72C93.18-6.15 93.30-6.60 93.42-7.06L93.47-7.06C93.60-6.60 93.72-6.15 93.85-5.72C93.98-5.28 94.12-4.84 94.26-4.40ZM94.88-2.40L95.63 0L96.70 0L94.03-7.87L92.90-7.87L90.24 0L91.26 0L92.02-2.40ZM99.25-4.07L96.96 0L98.02 0L99.16-2.12C99.25-2.32 99.35-2.51 99.46-2.72C99.56-2.92 99.67-3.14 99.78-3.38L99.83-3.38C99.96-3.14 100.07-2.92 100.18-2.72C100.29-2.51 100.40-2.32 100.50-2.12L101.65 0L102.76 0L100.46-4.02L102.61-7.87L101.56-7.87L100.51-5.86C100.42-5.67 100.33-5.49 100.24-5.32C100.16-5.15 100.06-4.95 99.95-4.72L99.90-4.72C99.78-4.95 99.67-5.15 99.58-5.32C99.49-5.49 99.39-5.67 99.29-5.86L98.22-7.87L97.12-7.87Z" transform="translate(-1.08, 7.872)"></path></g></g></g></g></g><defs v-gra="od"></defs></svg>
